<svg width="231" height="231" viewBox="0 0 231 231" fill="none" xmlns="http://www.w3.org/2000/svg">
  <path d="M115.5 227C177.08 227 227 177.08 227 115.5C227 53.9203 177.08 4 115.5 4C53.9202 4 4 53.9203 4 115.5C4 177.08 53.9202 227 115.5 227Z" stroke="white" stroke-width="7.68966" stroke-miterlimit="10"/>
  <path d="M102.63 140.886C101.873 140.919 95.4085 141.741 95.3663 141.746C95.365 141.746 95.3673 141.746 95.366 141.746C95.3236 141.751 81.531 143.433 81.1683 143.499C80.8051 143.566 80.8382 144.194 81.1683 144.194C81.4985 144.194 91.1728 144.889 97.017 144.723C102.107 144.552 108.387 144.33 109.977 144.274C110.218 144.265 110.444 144.369 110.602 144.552C111.378 145.452 113.821 148.131 115.441 148.131C116.306 148.131 116.403 148.131 116.243 148.131C115.806 148.131 115.456 147.769 115.474 147.332C115.787 139.556 118.195 77.6667 115.441 77.6667C112.503 77.6667 105.206 87.5582 105.206 104.86C105.206 109.2 104.92 112.165 104.88 112.557C104.877 112.587 104.872 112.614 104.857 112.641C104.66 112.979 102.443 115.462 78.7773 119.654C78.3831 119.724 77.9656 119.473 77.6767 119.196C77.2941 118.83 76.5551 118.435 75.159 118.49C72.915 118.541 71.636 120.013 71.1699 120.68C71.0315 120.878 70.8253 121.027 70.5866 121.065L47.8893 124.733C47.6037 124.779 47.3159 124.66 47.1023 124.465C46.673 124.073 45.8205 123.496 44.5842 123.584C43.2826 123.677 42.4555 124.41 42.0798 124.835C41.9192 125.017 41.7012 125.151 41.4593 125.17L14.7548 127.341C14.4116 127.369 14.0918 127.166 13.9713 126.843C13.7758 126.32 13.498 125.578 13.4152 125.371C13.2831 125.04 13.4812 130.068 15.4293 130.101C17.1641 130.101 35.2396 130.154 39.175 130.165C39.5988 130.167 39.9405 130.511 40.019 130.928C40.1069 131.394 40.2802 132.048 40.622 132.814C41.3154 134.369 43.0984 135.858 44.188 135.858C44.8702 135.878 45.8114 135.16 46.4197 134.619C46.7577 134.319 47.2855 134.33 47.5849 134.668L47.8131 134.927C47.9639 135.097 48.1827 135.192 48.4103 135.186L52.3089 135.079C52.644 135.07 52.9338 135.295 53.1553 135.547C53.2877 135.697 53.4676 135.824 53.6972 135.824C53.8581 135.824 53.9755 135.757 54.0613 135.66C54.3277 135.359 54.602 134.986 55.0038 134.972L64.5905 134.627C64.9992 134.612 65.3405 134.927 65.4863 135.309C65.6286 135.682 65.8861 136.057 66.3432 136.023C66.7956 136.023 67.0184 135.64 67.1281 135.262C67.2432 134.866 67.5597 134.521 67.9716 134.504L69.6969 134.431C70.0967 134.415 70.4239 134.728 70.6425 135.063C70.777 135.27 70.9833 135.441 71.2959 135.427C71.9232 135.394 72.3525 134.468 72.3525 133.476C72.3311 132.855 72.3097 131.596 72.2973 130.786C72.2909 130.368 72.6198 130.023 73.0373 130.008L73.3055 129.998C73.7408 129.982 74.0708 130.36 74.2915 130.736C74.3985 130.918 74.5662 131.061 74.8288 131.061C75.2011 131.061 75.4434 130.748 75.591 130.443C75.7461 130.122 76.0372 129.859 76.3928 129.844L80.7551 129.657C81.0036 129.647 81.2154 129.836 81.2331 130.084C81.2518 130.345 81.0478 130.57 80.7855 130.576L78.9618 130.618C78.6407 130.626 78.3587 130.832 78.2732 131.142C78.1044 131.752 77.8552 132.831 77.8335 133.939C77.8005 135.626 78.0316 137.809 79.5174 137.876C80.9975 137.941 95.1251 138.565 95.2334 138.57C95.2368 138.57 95.232 138.57 95.2353 138.57C95.3427 138.576 102.174 138.967 102.96 139C103.753 139.033 104.38 138.769 104.38 138.438C104.38 138.127 104.322 135.836 104.315 135.555C104.314 135.536 104.313 135.517 104.311 135.498C104.281 135.163 104.287 134.6 104.512 134.6C104.784 134.6 105.618 134.6 105.939 134.6C106.019 134.6 106.096 134.622 106.139 134.69C106.153 134.712 106.166 134.746 106.17 134.772C106.238 135.194 106.361 137.022 106.361 138.14C106.343 138.753 106.355 139.445 106.326 139.947C106.302 140.371 105.796 140.723 105.373 140.752C104.503 140.813 103.133 140.864 102.63 140.886Z" fill="white"/>
  <path d="M128.317 140.886C129.074 140.919 135.539 141.741 135.581 141.746C135.582 141.746 135.58 141.746 135.581 141.746C135.624 141.751 149.416 143.433 149.779 143.5C150.142 143.566 150.109 144.194 149.779 144.194C149.449 144.194 139.774 144.889 133.93 144.724C128.84 144.552 122.56 144.33 120.97 144.274C120.729 144.265 120.503 144.369 120.345 144.552C119.57 145.453 117.127 148.131 115.506 148.131C114.641 148.131 114.544 148.131 114.704 148.131C115.141 148.131 115.491 147.769 115.473 147.332C115.16 139.556 112.752 77.6669 115.506 77.6669C118.445 77.6669 125.742 87.5583 125.742 104.86C125.742 109.2 126.027 112.165 126.067 112.557C126.07 112.587 126.075 112.614 126.09 112.641C126.287 112.979 128.504 115.462 152.17 119.654C152.564 119.724 152.982 119.473 153.271 119.196C153.653 118.83 154.392 118.435 155.788 118.49C158.032 118.541 159.311 120.013 159.777 120.68C159.916 120.878 160.122 121.027 160.361 121.065L183.058 124.733C183.343 124.779 183.631 124.66 183.845 124.465C184.274 124.073 185.127 123.496 186.363 123.584C187.665 123.677 188.492 124.41 188.867 124.836C189.028 125.017 189.246 125.151 189.488 125.17L216.192 127.342C216.536 127.369 216.855 127.166 216.976 126.843C217.171 126.32 217.449 125.578 217.532 125.371C217.664 125.04 217.466 130.068 215.518 130.101C213.783 130.101 195.708 130.154 191.772 130.165C191.348 130.167 191.007 130.511 190.928 130.928C190.84 131.394 190.667 132.048 190.325 132.814C189.632 134.369 187.849 135.858 186.759 135.858C186.077 135.878 185.136 135.16 184.527 134.62C184.189 134.32 183.662 134.33 183.362 134.669L183.134 134.927C182.983 135.097 182.764 135.192 182.537 135.186L178.638 135.079C178.303 135.07 178.013 135.295 177.792 135.547C177.659 135.697 177.48 135.825 177.25 135.825C177.089 135.825 176.972 135.757 176.886 135.66C176.619 135.359 176.345 134.986 175.943 134.972L166.357 134.627C165.948 134.612 165.607 134.927 165.461 135.309C165.319 135.682 165.061 136.057 164.604 136.023C164.152 136.023 163.929 135.64 163.819 135.262C163.704 134.866 163.387 134.521 162.976 134.504L161.25 134.432C160.85 134.415 160.523 134.728 160.305 135.064C160.17 135.27 159.964 135.441 159.651 135.428C159.024 135.394 158.595 134.468 158.595 133.476C158.616 132.855 158.637 131.597 158.65 130.786C158.656 130.368 158.327 130.023 157.91 130.008L157.642 129.998C157.206 129.982 156.876 130.36 156.656 130.736C156.549 130.918 156.381 131.061 156.118 131.061C155.746 131.061 155.504 130.748 155.356 130.443C155.201 130.123 154.91 129.859 154.554 129.844L150.192 129.657C149.944 129.647 149.732 129.836 149.714 130.084C149.695 130.345 149.899 130.57 150.162 130.576L151.985 130.618C152.306 130.626 152.588 130.832 152.674 131.142C152.843 131.753 153.092 132.831 153.114 133.939C153.147 135.626 152.916 137.809 151.43 137.876C149.95 137.942 135.822 138.566 135.714 138.57C135.71 138.57 135.715 138.57 135.712 138.57C135.604 138.577 128.773 138.968 127.987 139C127.194 139.033 126.567 138.769 126.567 138.438C126.567 138.128 126.625 135.836 126.632 135.555C126.633 135.536 126.634 135.517 126.636 135.499C126.666 135.163 126.66 134.601 126.435 134.601C126.163 134.601 125.33 134.601 125.008 134.601C124.928 134.601 124.851 134.622 124.808 134.69C124.794 134.713 124.781 134.746 124.777 134.772C124.709 135.194 124.586 137.022 124.586 138.14C124.604 138.753 124.593 139.445 124.621 139.947C124.645 140.371 125.151 140.723 125.574 140.753C126.437 140.814 127.794 140.864 128.317 140.886Z" fill="white"/>
</svg>
